<?xml version="1.0" encoding="UTF-8" standalone="no"?>
<svg
   xmlns:dc="http://purl.org/dc/elements/1.1/"
   xmlns:cc="http://creativecommons.org/ns#"
   xmlns:rdf="http://www.w3.org/1999/02/22-rdf-syntax-ns#"
   xmlns:svg="http://www.w3.org/2000/svg"
   xmlns="http://www.w3.org/2000/svg"
   xmlns:sodipodi="http://sodipodi.sourceforge.net/DTD/sodipodi-0.dtd"
   xmlns:inkscape="http://www.inkscape.org/namespaces/inkscape"
   version="1.1"
   id="svg889"
   xml:space="preserve"
   width="613.62799"
   height="121.931"
   viewBox="0 0 613.62799 121.931"
   sodipodi:docname="figura_01.svg"
   inkscape:version="1.0.2 (e86c870879, 2021-01-15, custom)"><metadata
     id="metadata895"><rdf:RDF><cc:Work
         rdf:about=""><dc:format>image/svg+xml</dc:format><dc:type
           rdf:resource="http://purl.org/dc/dcmitype/StillImage" /><dc:title></dc:title></cc:Work></rdf:RDF></metadata><defs
     id="defs893"><clipPath
       clipPathUnits="userSpaceOnUse"
       id="clipPath1091"><path
         d="m 680.398,4525.2 h 4680 v 945.957 h -4680 z m 2672.582,601.1 85.63,-163.3 52.78,27.88 -85.64,163.3 v 0 l 43.82,-146.38 z"
         clip-rule="evenodd"
         id="path1089" /></clipPath><clipPath
       clipPathUnits="userSpaceOnUse"
       id="clipPath1101"><path
         d="m 680.398,4525.2 h 4680 v 945.957 h -4680 z"
         id="path1099" /></clipPath><clipPath
       clipPathUnits="userSpaceOnUse"
       id="clipPath1113"><path
         d="m 680.398,4525.2 h 4680 v 945.957 h -4680 z m 1738.572,560.27 133.43,-127.45 40.83,43.81 -133.43,127.46 v 0 l 88.62,-125.47 z"
         clip-rule="evenodd"
         id="path1111" /></clipPath><clipPath
       clipPathUnits="userSpaceOnUse"
       id="clipPath1123"><path
         d="m 680.398,4525.2 h 4680 v 945.957 h -4680 z"
         id="path1121" /></clipPath><clipPath
       clipPathUnits="userSpaceOnUse"
       id="clipPath1135"><path
         d="m 680.398,4525.2 h 4680 v 945.957 h -4680 z m 2182.672,554.3 138.41,-121.48 39.83,44.8 -138.41,121.49 v 0 l 92.61,-121.49 z"
         clip-rule="evenodd"
         id="path1133" /></clipPath><clipPath
       clipPathUnits="userSpaceOnUse"
       id="clipPath1145"><path
         d="m 680.398,4525.2 h 4680 v 945.957 h -4680 z"
         id="path1143" /></clipPath><clipPath
       clipPathUnits="userSpaceOnUse"
       id="clipPath1157"><path
         d="m 680.398,4525.2 h 4680 v 945.957 h -4680 z m 1331.312,326.27 133.43,127.46 -40.82,43.81 -133.43,-127.45 v 0 l 129.44,80.65 z"
         clip-rule="evenodd"
         id="path1155" /></clipPath><clipPath
       clipPathUnits="userSpaceOnUse"
       id="clipPath1167"><path
         d="m 680.398,4525.2 h 4680 v 945.957 h -4680 z"
         id="path1165" /></clipPath><clipPath
       clipPathUnits="userSpaceOnUse"
       id="clipPath1179"><path
         d="m 680.398,4525.2 h 4680 v 945.957 h -4680 z m 3566.762,331.25 138.41,121.48 -39.84,44.81 -138.4,-121.48 v 0 l 132.43,75.68 z"
         clip-rule="evenodd"
         id="path1177" /></clipPath><clipPath
       clipPathUnits="userSpaceOnUse"
       id="clipPath1189"><path
         d="m 680.398,4525.2 h 4680 v 945.957 h -4680 z"
         id="path1187" /></clipPath><clipPath
       clipPathUnits="userSpaceOnUse"
       id="clipPath1201"><path
         d="m 680.398,4525.2 h 4680 v 945.957 h -4680 z m 4061.642,304.37 93.6,158.32 -51.78,30.87 -93.59,-158.33 v 0 l 102.55,112.52 z"
         clip-rule="evenodd"
         id="path1199" /></clipPath><clipPath
       clipPathUnits="userSpaceOnUse"
       id="clipPath1211"><path
         d="m 680.398,4525.2 h 4680 v 945.957 h -4680 z"
         id="path1209" /></clipPath><clipPath
       clipPathUnits="userSpaceOnUse"
       id="clipPath1223"><path
         d="m 680.398,4525.2 h 4680 v 945.957 h -4680 z m 4509.732,304.37 93.6,158.32 -51.78,30.87 -93.6,-158.33 v 0 l 102.56,112.52 z"
         clip-rule="evenodd"
         id="path1221" /></clipPath><clipPath
       clipPathUnits="userSpaceOnUse"
       id="clipPath1233"><path
         d="m 680.398,4525.2 h 4680 v 945.957 h -4680 z"
         id="path1231" /></clipPath><clipPath
       clipPathUnits="userSpaceOnUse"
       id="clipPath1245"><path
         d="m 680.398,4525.2 h 4680 v 945.957 h -4680 z m 3123.652,326.27 133.43,127.46 -40.82,43.81 -133.43,-127.45 v 0 l 129.44,80.65 z"
         clip-rule="evenodd"
         id="path1243" /></clipPath><clipPath
       clipPathUnits="userSpaceOnUse"
       id="clipPath1255"><path
         d="m 680.398,4525.2 h 4680 v 945.957 h -4680 z"
         id="path1253" /></clipPath><clipPath
       clipPathUnits="userSpaceOnUse"
       id="clipPath1267"><path
         d="m 680.398,4525.2 h 4680 v 945.957 h -4680 z m 3065.902,528.41 157.33,-96.59 30.86,50.78 -156.33,96.59 v 0 l 111.52,-104.55 z"
         clip-rule="evenodd"
         id="path1265" /></clipPath><clipPath
       clipPathUnits="userSpaceOnUse"
       id="clipPath1277"><path
         d="m 680.398,4525.2 h 4680 v 945.957 h -4680 z"
         id="path1275" /></clipPath><clipPath
       clipPathUnits="userSpaceOnUse"
       id="clipPath1289"><path
         d="m 680.398,4525.2 h 4680 v 945.957 h -4680 z m 3541.872,575.21 118.49,-140.4 45.8,37.84 -118.49,140.4 v 0 l 73.68,-133.43 z"
         clip-rule="evenodd"
         id="path1287" /></clipPath><clipPath
       clipPathUnits="userSpaceOnUse"
       id="clipPath1299"><path
         d="m 680.398,4525.2 h 4680 v 945.957 h -4680 z"
         id="path1297" /></clipPath><clipPath
       clipPathUnits="userSpaceOnUse"
       id="clipPath1311"><path
         d="m 680.398,4525.2 h 4680 v 945.957 h -4680 z m 1273.562,528.41 157.33,-96.59 30.86,50.78 -156.33,96.59 v 0 l 111.52,-104.55 z"
         clip-rule="evenodd"
         id="path1309" /></clipPath><clipPath
       clipPathUnits="userSpaceOnUse"
       id="clipPath1321"><path
         d="m 680.398,4525.2 h 4680 v 945.957 h -4680 z"
         id="path1319" /></clipPath><clipPath
       clipPathUnits="userSpaceOnUse"
       id="clipPath1333"><path
         d="m 680.398,4525.2 h 4680 v 945.957 h -4680 z m 3989.952,575.21 118.49,-140.4 45.81,37.84 -118.5,140.4 v 0 l 73.69,-133.43 z"
         clip-rule="evenodd"
         id="path1331" /></clipPath><clipPath
       clipPathUnits="userSpaceOnUse"
       id="clipPath1343"><path
         d="m 680.398,4525.2 h 4680 v 945.957 h -4680 z"
         id="path1341" /></clipPath><clipPath
       clipPathUnits="userSpaceOnUse"
       id="clipPath1355"><path
         d="m 680.398,4525.2 h 4680 v 945.957 h -4680 z m 368.422,434.81 h 184.22 v 59.74 h -184.22 v 0 l 149.37,-29.87 z"
         clip-rule="evenodd"
         id="path1353" /></clipPath><clipPath
       clipPathUnits="userSpaceOnUse"
       id="clipPath1365"><path
         d="m 680.398,4525.2 h 4680 v 945.957 h -4680 z"
         id="path1363" /></clipPath><clipPath
       clipPathUnits="userSpaceOnUse"
       id="clipPath1377"><path
         d="m 680.398,4525.2 h 4680 v 945.957 h -4680 z m 816.512,434.81 h 184.22 v 59.74 h -184.22 v 0 l 149.36,-29.87 z"
         clip-rule="evenodd"
         id="path1375" /></clipPath><clipPath
       clipPathUnits="userSpaceOnUse"
       id="clipPath1387"><path
         d="m 680.398,4525.2 h 4680 v 945.957 h -4680 z"
         id="path1385" /></clipPath><clipPath
       clipPathUnits="userSpaceOnUse"
       id="clipPath1399"><path
         d="m 680.398,4525.2 h 4680 v 945.957 h -4680 z m 1712.682,434.81 h 184.21 v 59.74 h -184.21 v 0 l 149.36,-29.87 z"
         clip-rule="evenodd"
         id="path1397" /></clipPath><clipPath
       clipPathUnits="userSpaceOnUse"
       id="clipPath1409"><path
         d="m 680.398,4525.2 h 4680 v 945.957 h -4680 z"
         id="path1407" /></clipPath><clipPath
       clipPathUnits="userSpaceOnUse"
       id="clipPath1421"><path
         d="m 680.398,4525.2 h 4680 v 945.957 h -4680 z m 2608.852,434.81 h 184.21 v 59.74 h -184.21 v 0 l 149.36,-29.87 z"
         clip-rule="evenodd"
         id="path1419" /></clipPath><clipPath
       clipPathUnits="userSpaceOnUse"
       id="clipPath1431"><path
         d="m 680.398,4525.2 h 4680 v 945.957 h -4680 z"
         id="path1429" /></clipPath><clipPath
       clipPathUnits="userSpaceOnUse"
       id="clipPath1443"><path
         d="m 680.398,4525.2 h 4680 v 945.957 h -4680 z m 3953.112,434.81 h 184.21 v 59.74 h -184.21 v 0 l 149.36,-29.87 z"
         clip-rule="evenodd"
         id="path1441" /></clipPath><clipPath
       clipPathUnits="userSpaceOnUse"
       id="clipPath1453"><path
         d="m 680.398,4525.2 h 4680 v 945.957 h -4680 z"
         id="path1451" /></clipPath><clipPath
       clipPathUnits="userSpaceOnUse"
       id="clipPath1465"><path
         d="m 680.398,4525.2 h 4680 v 945.957 h -4680 z m 3505.022,434.81 h 184.21 v 59.74 h -184.21 v 0 l 149.36,-29.87 z"
         clip-rule="evenodd"
         id="path1463" /></clipPath><clipPath
       clipPathUnits="userSpaceOnUse"
       id="clipPath1475"><path
         d="m 680.398,4525.2 h 4680 v 945.957 h -4680 z"
         id="path1473" /></clipPath><clipPath
       clipPathUnits="userSpaceOnUse"
       id="clipPath1487"><path
         d="m 680.398,4525.2 h 4680 v 945.957 h -4680 z m 4401.192,434.81 h 184.21 v 59.74 h -184.21 v 0 l 149.36,-29.87 z"
         clip-rule="evenodd"
         id="path1485" /></clipPath><clipPath
       clipPathUnits="userSpaceOnUse"
       id="clipPath1497"><path
         d="m 680.398,4525.2 h 4680 v 945.957 h -4680 z"
         id="path1495" /></clipPath><clipPath
       clipPathUnits="userSpaceOnUse"
       id="clipPath1509"><path
         d="m 680.398,4525.2 h 4680 v 945.957 h -4680 z M 1945,4960.01 h 184.21 v 59.74 H 1945 v 0 l 149.36,-29.87 z"
         clip-rule="evenodd"
         id="path1507" /></clipPath><clipPath
       clipPathUnits="userSpaceOnUse"
       id="clipPath1519"><path
         d="m 680.398,4525.2 h 4680 v 945.957 h -4680 z"
         id="path1517" /></clipPath><clipPath
       clipPathUnits="userSpaceOnUse"
       id="clipPath1575"><path
         d=""
         id="path1573" /></clipPath></defs><sodipodi:namedview
     pagecolor="#ffffff"
     bordercolor="#666666"
     borderopacity="1"
     objecttolerance="10"
     gridtolerance="10"
     guidetolerance="10"
     inkscape:pageopacity="0"
     inkscape:pageshadow="2"
     inkscape:window-width="1920"
     inkscape:window-height="1025"
     id="namedview891"
     showgrid="false"
     inkscape:zoom="0.739248"
     inkscape:cx="359.09626"
     inkscape:cy="200.04653"
     inkscape:window-x="0"
     inkscape:window-y="27"
     inkscape:window-maximized="1"
     inkscape:current-layer="g897" /><g
     id="g897"
     inkscape:groupmode="layer"
     inkscape:label="enunciado"
     transform="matrix(1.3333333,0,0,-1.3333333,0,1056)"><g
       id="g1569"
       transform="scale(0.1)"><g
         id="g1571"
         clip-path="url(#clipPath1575)"><g
           id="g1577"
           transform="matrix(973.2,0,0,-4.8,-292.92,6025.08)"><rect
             x="0"
             y="0"
             width="1"
             height="1"
             transform="matrix(1,0,0,-1,0,1)"
             style="fill:#000000;fill-opacity:1;fill-rule:nonzero"
             id="rect1579" /></g></g></g><g
       id="g3166"
       transform="translate(-70.615768,247.28721)"><g
         id="g1085"
         transform="scale(0.1)"><g
           id="g1087"
           clip-path="url(#clipPath1091)"><path
             d="m 2114.32,4989.91 c 113.05,271.32 378.15,448.05 672.08,448.05 293.93,0 559.03,-176.73 672.08,-448.05"
             style="fill:none;stroke:#0000ff;stroke-width:14.9362;stroke-linecap:butt;stroke-linejoin:miter;stroke-miterlimit:10;stroke-dasharray:none;stroke-opacity:1"
             id="path1093" /></g></g><g
         id="g1095"
         transform="scale(0.1)"><g
           id="g1097"
           clip-path="url(#clipPath1101)"><path
             d="m 3352.98,5126.3 96.59,-118.5 -43.82,146.38 -12.94,-39.83 -39.83,11.95"
             style="fill:#0000ff;fill-opacity:1;fill-rule:evenodd;stroke:none"
             id="path1103" /><path
             d="m 3352.98,5126.3 96.59,-118.5 -43.82,146.38 -12.94,-39.83 z"
             style="fill:none;stroke:#0000ff;stroke-width:7.46808;stroke-linecap:butt;stroke-linejoin:miter;stroke-miterlimit:10;stroke-dasharray:none;stroke-opacity:1"
             id="path1105" /></g></g><g
         id="g1107"
         transform="scale(0.1)"><g
           id="g1109"
           clip-path="url(#clipPath1113)"><path
             d="m 1218.08,4989.88 c 171.7,190.18 415.93,298.73 672.15,298.73 256.22,0 500.45,-108.55 672.15,-298.73"
             style="fill:none;stroke:#0000ff;stroke-width:14.9362;stroke-linecap:butt;stroke-linejoin:miter;stroke-miterlimit:10;stroke-dasharray:none;stroke-opacity:1"
             id="path1115" /></g></g><g
         id="g1117"
         transform="scale(0.1)"><g
           id="g1119"
           clip-path="url(#clipPath1123)"><path
             d="m 2418.97,5085.47 129.45,-81.65 -88.62,125.47 0.99,-42.82 -41.82,-1"
             style="fill:#0000ff;fill-opacity:1;fill-rule:evenodd;stroke:none"
             id="path1125" /><path
             d="m 2418.97,5085.47 129.45,-81.65 -88.62,125.47 0.99,-42.82 z"
             style="fill:none;stroke:#0000ff;stroke-width:7.46808;stroke-linecap:butt;stroke-linejoin:miter;stroke-miterlimit:10;stroke-dasharray:none;stroke-opacity:1"
             id="path1127" /></g></g><g
         id="g1129"
         transform="scale(0.1)"><g
           id="g1131"
           clip-path="url(#clipPath1135)"><path
             d="m 770.039,4989.86 c 301.491,288.66 702.791,449.8 1120.191,449.8 417.4,0 818.7,-161.14 1120.19,-449.8"
             style="fill:none;stroke:#0000ff;stroke-width:14.9362;stroke-linecap:butt;stroke-linejoin:miter;stroke-miterlimit:10;stroke-dasharray:none;stroke-opacity:1"
             id="path1137" /></g></g><g
         id="g1139"
         transform="scale(0.1)"><g
           id="g1141"
           clip-path="url(#clipPath1145)"><path
             d="m 2863.07,5079.5 132.44,-76.68 -92.61,121.49 1.99,-41.83 -41.82,-2.98"
             style="fill:#0000ff;fill-opacity:1;fill-rule:evenodd;stroke:none"
             id="path1147" /><path
             d="m 2863.07,5079.5 132.44,-76.68 -92.61,121.49 1.99,-41.83 z"
             style="fill:none;stroke:#0000ff;stroke-width:7.46808;stroke-linecap:butt;stroke-linejoin:miter;stroke-miterlimit:10;stroke-dasharray:none;stroke-opacity:1"
             id="path1149" /></g></g><g
         id="g1151"
         transform="scale(0.1)"><g
           id="g1153"
           clip-path="url(#clipPath1157)"><path
             d="m 770,4989.89 c 171.691,-190.18 415.93,-298.73 672.14,-298.73 256.22,0 500.46,108.55 672.15,298.73"
             style="fill:none;stroke:#ff0000;stroke-width:14.9362;stroke-linecap:butt;stroke-linejoin:miter;stroke-miterlimit:10;stroke-dasharray:none;stroke-opacity:1"
             id="path1159" /></g></g><g
         id="g1161"
         transform="scale(0.1)"><g
           id="g1163"
           clip-path="url(#clipPath1167)"><path
             d="m 2011.71,4851.47 88.62,124.47 -129.44,-80.65 41.82,-1 -1,-42.82"
             style="fill:#ff0000;fill-opacity:1;fill-rule:evenodd;stroke:none"
             id="path1169" /><path
             d="m 2011.71,4851.47 88.62,124.47 -129.44,-80.65 41.82,-1 z"
             style="fill:none;stroke:#ff0000;stroke-width:7.46808;stroke-linecap:butt;stroke-linejoin:miter;stroke-miterlimit:10;stroke-dasharray:none;stroke-opacity:1"
             id="path1171" /></g></g><g
         id="g1173"
         transform="scale(0.1)"><g
           id="g1175"
           clip-path="url(#clipPath1179)"><path
             d="m 2114.29,4989.9 c 301.5,-288.66 702.79,-449.79 1120.19,-449.79 417.41,0 818.7,161.13 1120.2,449.79"
             style="fill:none;stroke:#ff0000;stroke-width:14.9362;stroke-linecap:butt;stroke-linejoin:miter;stroke-miterlimit:10;stroke-dasharray:none;stroke-opacity:1"
             id="path1181" /></g></g><g
         id="g1183"
         transform="scale(0.1)"><g
           id="g1185"
           clip-path="url(#clipPath1189)"><path
             d="m 4247.16,4856.45 92.6,120.49 -132.43,-75.68 41.82,-2.99 -1.99,-41.82"
             style="fill:#ff0000;fill-opacity:1;fill-rule:evenodd;stroke:none"
             id="path1191" /><path
             d="m 4247.16,4856.45 92.6,120.49 -132.43,-75.68 41.82,-2.99 z"
             style="fill:none;stroke:#ff0000;stroke-width:7.46808;stroke-linecap:butt;stroke-linejoin:miter;stroke-miterlimit:10;stroke-dasharray:none;stroke-opacity:1"
             id="path1193" /></g></g><g
         id="g1195"
         transform="scale(0.1)"><g
           id="g1197"
           clip-path="url(#clipPath1201)"><path
             d="m 3906.61,4989.88 c 75.37,-180.89 252.12,-298.72 448.09,-298.72 195.96,0 372.71,117.83 448.08,298.72"
             style="fill:none;stroke:#0000ff;stroke-width:14.9362;stroke-linecap:butt;stroke-linejoin:miter;stroke-miterlimit:10;stroke-dasharray:none;stroke-opacity:1"
             id="path1203" /></g></g><g
         id="g1205"
         transform="scale(0.1)"><g
           id="g1207"
           clip-path="url(#clipPath1211)"><path
             d="m 4742.04,4829.57 50.78,143.38 -102.55,-112.52 40.82,9.96 10.95,-40.82"
             style="fill:#0000ff;fill-opacity:1;fill-rule:evenodd;stroke:none"
             id="path1213" /><path
             d="m 4742.04,4829.57 50.78,143.38 -102.55,-112.52 40.82,9.96 z"
             style="fill:none;stroke:#0000ff;stroke-width:7.46808;stroke-linecap:butt;stroke-linejoin:miter;stroke-miterlimit:10;stroke-dasharray:none;stroke-opacity:1"
             id="path1215" /></g></g><g
         id="g1217"
         transform="scale(0.1)"><g
           id="g1219"
           clip-path="url(#clipPath1223)"><path
             d="m 4354.7,4989.88 c 75.37,-180.89 252.12,-298.72 448.08,-298.72 195.97,0 372.72,117.83 448.09,298.72"
             style="fill:none;stroke:#0000ff;stroke-width:14.9362;stroke-linecap:butt;stroke-linejoin:miter;stroke-miterlimit:10;stroke-dasharray:none;stroke-opacity:1"
             id="path1225" /></g></g><g
         id="g1227"
         transform="scale(0.1)"><g
           id="g1229"
           clip-path="url(#clipPath1233)"><path
             d="m 5190.13,4829.57 50.78,143.38 -102.56,-112.52 40.83,9.96 10.95,-40.82"
             style="fill:#0000ff;fill-opacity:1;fill-rule:evenodd;stroke:none"
             id="path1235" /><path
             d="m 5190.13,4829.57 50.78,143.38 -102.56,-112.52 40.83,9.96 z"
             style="fill:none;stroke:#0000ff;stroke-width:7.46808;stroke-linecap:butt;stroke-linejoin:miter;stroke-miterlimit:10;stroke-dasharray:none;stroke-opacity:1"
             id="path1237" /></g></g><g
         id="g1239"
         transform="scale(0.1)"><g
           id="g1241"
           clip-path="url(#clipPath1245)"><path
             d="m 2562.34,4989.89 c 171.69,-190.18 415.93,-298.73 672.14,-298.73 256.22,0 500.46,108.55 672.15,298.73"
             style="fill:none;stroke:#0000ff;stroke-width:14.9362;stroke-linecap:butt;stroke-linejoin:miter;stroke-miterlimit:10;stroke-dasharray:none;stroke-opacity:1"
             id="path1247" /></g></g><g
         id="g1249"
         transform="scale(0.1)"><g
           id="g1251"
           clip-path="url(#clipPath1255)"><path
             d="m 3804.05,4851.47 88.62,124.47 -129.44,-80.65 41.82,-1 -1,-42.82"
             style="fill:#0000ff;fill-opacity:1;fill-rule:evenodd;stroke:none"
             id="path1257" /><path
             d="m 3804.05,4851.47 88.62,124.47 -129.44,-80.65 41.82,-1 z"
             style="fill:none;stroke:#0000ff;stroke-width:7.46808;stroke-linecap:butt;stroke-linejoin:miter;stroke-miterlimit:10;stroke-dasharray:none;stroke-opacity:1"
             id="path1259" /></g></g><g
         id="g1261"
         transform="scale(0.1)"><g
           id="g1263"
           clip-path="url(#clipPath1267)"><path
             d="m 3010.44,4989.88 c 129.27,96.95 286.5,149.36 448.09,149.36 161.58,0 318.82,-52.41 448.08,-149.36"
             style="fill:none;stroke:#ff0000;stroke-width:14.9362;stroke-linecap:butt;stroke-linejoin:miter;stroke-miterlimit:10;stroke-dasharray:none;stroke-opacity:1"
             id="path1269" /></g></g><g
         id="g1271"
         transform="scale(0.1)"><g
           id="g1273"
           clip-path="url(#clipPath1277)"><path
             d="m 3746.3,5053.61 143.38,-53.77 -111.52,104.55 8.97,-40.82 -40.83,-9.96"
             style="fill:#ff0000;fill-opacity:1;fill-rule:evenodd;stroke:none"
             id="path1279" /><path
             d="m 3746.3,5053.61 143.38,-53.77 -111.52,104.55 8.97,-40.82 z"
             style="fill:none;stroke:#ff0000;stroke-width:7.46808;stroke-linecap:butt;stroke-linejoin:miter;stroke-miterlimit:10;stroke-dasharray:none;stroke-opacity:1"
             id="path1281" /></g></g><g
         id="g1283"
         transform="scale(0.1)"><g
           id="g1285"
           clip-path="url(#clipPath1289)"><path
             d="m 2562.36,4989.88 c 211.55,282.07 543.57,448.08 896.17,448.08 352.59,0 684.61,-166.01 896.17,-448.08"
             style="fill:none;stroke:#ff0000;stroke-width:14.9362;stroke-linecap:butt;stroke-linejoin:miter;stroke-miterlimit:10;stroke-dasharray:none;stroke-opacity:1"
             id="path1291" /></g></g><g
         id="g1293"
         transform="scale(0.1)"><g
           id="g1295"
           clip-path="url(#clipPath1299)"><path
             d="m 4222.27,5100.41 119.48,-95.59 -73.68,133.43 -3.98,-41.82 -41.82,3.98"
             style="fill:#ff0000;fill-opacity:1;fill-rule:evenodd;stroke:none"
             id="path1301" /><path
             d="m 4222.27,5100.41 119.48,-95.59 -73.68,133.43 -3.98,-41.82 z"
             style="fill:none;stroke:#ff0000;stroke-width:7.46808;stroke-linecap:butt;stroke-linejoin:miter;stroke-miterlimit:10;stroke-dasharray:none;stroke-opacity:1"
             id="path1303" /></g></g><g
         id="g1305"
         transform="scale(0.1)"><g
           id="g1307"
           clip-path="url(#clipPath1311)"><path
             d="m 1218.1,4989.88 c 129.27,96.95 286.5,149.36 448.09,149.36 161.58,0 318.82,-52.41 448.08,-149.36"
             style="fill:none;stroke:#0000ff;stroke-width:14.9362;stroke-linecap:butt;stroke-linejoin:miter;stroke-miterlimit:10;stroke-dasharray:none;stroke-opacity:1"
             id="path1313" /></g></g><g
         id="g1315"
         transform="scale(0.1)"><g
           id="g1317"
           clip-path="url(#clipPath1321)"><path
             d="m 1953.96,5053.61 143.38,-53.77 -111.52,104.55 8.96,-40.82 -40.82,-9.96"
             style="fill:#0000ff;fill-opacity:1;fill-rule:evenodd;stroke:none"
             id="path1323" /><path
             d="m 1953.96,5053.61 143.38,-53.77 -111.52,104.55 8.96,-40.82 z"
             style="fill:none;stroke:#0000ff;stroke-width:7.46808;stroke-linecap:butt;stroke-linejoin:miter;stroke-miterlimit:10;stroke-dasharray:none;stroke-opacity:1"
             id="path1325" /></g></g><g
         id="g1327"
         transform="scale(0.1)"><g
           id="g1329"
           clip-path="url(#clipPath1333)"><path
             d="m 3010.44,4989.88 c 211.56,282.07 543.58,448.08 896.17,448.08 352.6,0 684.62,-166.01 896.17,-448.08"
             style="fill:none;stroke:#0000ff;stroke-width:14.9362;stroke-linecap:butt;stroke-linejoin:miter;stroke-miterlimit:10;stroke-dasharray:none;stroke-opacity:1"
             id="path1335" /></g></g><g
         id="g1337"
         transform="scale(0.1)"><g
           id="g1339"
           clip-path="url(#clipPath1343)"><path
             d="m 4670.35,5100.41 119.49,-95.59 -73.69,133.43 -3.98,-41.82 -41.82,3.98"
             style="fill:#0000ff;fill-opacity:1;fill-rule:evenodd;stroke:none"
             id="path1345" /><path
             d="m 4670.35,5100.41 119.49,-95.59 -73.69,133.43 -3.98,-41.82 z"
             style="fill:none;stroke:#0000ff;stroke-width:7.46808;stroke-linecap:butt;stroke-linejoin:miter;stroke-miterlimit:10;stroke-dasharray:none;stroke-opacity:1"
             id="path1347" /></g></g><g
         id="g1349"
         transform="scale(0.1)"><g
           id="g1351"
           clip-path="url(#clipPath1355)"><path
             d="M 770.016,4989.88 H 1218.1"
             style="fill:none;stroke:#ff0000;stroke-width:14.9362;stroke-linecap:butt;stroke-linejoin:miter;stroke-miterlimit:10;stroke-dasharray:none;stroke-opacity:1"
             id="path1357" /></g></g><g
         id="g1359"
         transform="scale(0.1)"><g
           id="g1361"
           clip-path="url(#clipPath1365)"><path
             d="m 1048.82,4960.01 149.37,29.87 -149.37,29.87 29.88,-29.87 -29.88,-29.87"
             style="fill:#ff0000;fill-opacity:1;fill-rule:evenodd;stroke:none"
             id="path1367" /><path
             d="m 1048.82,4960.01 149.37,29.87 -149.37,29.87 29.88,-29.87 z"
             style="fill:none;stroke:#ff0000;stroke-width:7.46808;stroke-linecap:butt;stroke-linejoin:miter;stroke-miterlimit:10;stroke-dasharray:none;stroke-opacity:1"
             id="path1369" /></g></g><g
         id="g1371"
         transform="scale(0.1)"><g
           id="g1373"
           clip-path="url(#clipPath1377)"><path
             d="m 1218.1,4989.88 h 448.09"
             style="fill:none;stroke:#ff0000;stroke-width:14.9362;stroke-linecap:butt;stroke-linejoin:miter;stroke-miterlimit:10;stroke-dasharray:none;stroke-opacity:1"
             id="path1379" /></g></g><g
         id="g1381"
         transform="scale(0.1)"><g
           id="g1383"
           clip-path="url(#clipPath1387)"><path
             d="m 1496.91,4960.01 149.36,29.87 -149.36,29.87 29.87,-29.87 -29.87,-29.87"
             style="fill:#ff0000;fill-opacity:1;fill-rule:evenodd;stroke:none"
             id="path1389" /><path
             d="m 1496.91,4960.01 149.36,29.87 -149.36,29.87 29.87,-29.87 z"
             style="fill:none;stroke:#ff0000;stroke-width:7.46808;stroke-linecap:butt;stroke-linejoin:miter;stroke-miterlimit:10;stroke-dasharray:none;stroke-opacity:1"
             id="path1391" /></g></g><g
         id="g1393"
         transform="scale(0.1)"><g
           id="g1395"
           clip-path="url(#clipPath1399)"><path
             d="m 2114.27,4989.88 h 448.09"
             style="fill:none;stroke:#0000ff;stroke-width:14.9362;stroke-linecap:butt;stroke-linejoin:miter;stroke-miterlimit:10;stroke-dasharray:none;stroke-opacity:1"
             id="path1401" /></g></g><g
         id="g1403"
         transform="scale(0.1)"><g
           id="g1405"
           clip-path="url(#clipPath1409)"><path
             d="m 2393.08,4960.01 149.36,29.87 -149.36,29.87 29.87,-29.87 -29.87,-29.87"
             style="fill:#0000ff;fill-opacity:1;fill-rule:evenodd;stroke:none"
             id="path1411" /><path
             d="m 2393.08,4960.01 149.36,29.87 -149.36,29.87 29.87,-29.87 z"
             style="fill:none;stroke:#0000ff;stroke-width:7.46808;stroke-linecap:butt;stroke-linejoin:miter;stroke-miterlimit:10;stroke-dasharray:none;stroke-opacity:1"
             id="path1413" /></g></g><g
         id="g1415"
         transform="scale(0.1)"><g
           id="g1417"
           clip-path="url(#clipPath1421)"><path
             d="m 3010.44,4989.88 h 448.09"
             style="fill:none;stroke:#ff0000;stroke-width:14.9362;stroke-linecap:butt;stroke-linejoin:miter;stroke-miterlimit:10;stroke-dasharray:none;stroke-opacity:1"
             id="path1423" /></g></g><g
         id="g1425"
         transform="scale(0.1)"><g
           id="g1427"
           clip-path="url(#clipPath1431)"><path
             d="m 3289.25,4960.01 149.36,29.87 -149.36,29.87 29.88,-29.87 -29.88,-29.87"
             style="fill:#ff0000;fill-opacity:1;fill-rule:evenodd;stroke:none"
             id="path1433" /><path
             d="m 3289.25,4960.01 149.36,29.87 -149.36,29.87 29.88,-29.87 z"
             style="fill:none;stroke:#ff0000;stroke-width:7.46808;stroke-linecap:butt;stroke-linejoin:miter;stroke-miterlimit:10;stroke-dasharray:none;stroke-opacity:1"
             id="path1435" /></g></g><g
         id="g1437"
         transform="scale(0.1)"><g
           id="g1439"
           clip-path="url(#clipPath1443)"><path
             d="m 4354.7,4989.88 h 448.08"
             style="fill:none;stroke:#ff0000;stroke-width:14.9362;stroke-linecap:butt;stroke-linejoin:miter;stroke-miterlimit:10;stroke-dasharray:none;stroke-opacity:1"
             id="path1445" /></g></g><g
         id="g1447"
         transform="scale(0.1)"><g
           id="g1449"
           clip-path="url(#clipPath1453)"><path
             d="m 4633.51,4960.01 149.36,29.87 -149.36,29.87 29.87,-29.87 -29.87,-29.87"
             style="fill:#ff0000;fill-opacity:1;fill-rule:evenodd;stroke:none"
             id="path1455" /><path
             d="m 4633.51,4960.01 149.36,29.87 -149.36,29.87 29.87,-29.87 z"
             style="fill:none;stroke:#ff0000;stroke-width:7.46808;stroke-linecap:butt;stroke-linejoin:miter;stroke-miterlimit:10;stroke-dasharray:none;stroke-opacity:1"
             id="path1457" /></g></g><g
         id="g1459"
         transform="scale(0.1)"><g
           id="g1461"
           clip-path="url(#clipPath1465)"><path
             d="M 3906.61,4989.88 H 4354.7"
             style="fill:none;stroke:#ff0000;stroke-width:14.9362;stroke-linecap:butt;stroke-linejoin:miter;stroke-miterlimit:10;stroke-dasharray:none;stroke-opacity:1"
             id="path1467" /></g></g><g
         id="g1469"
         transform="scale(0.1)"><g
           id="g1471"
           clip-path="url(#clipPath1475)"><path
             d="m 4185.42,4960.01 149.36,29.87 -149.36,29.87 29.87,-29.87 -29.87,-29.87"
             style="fill:#ff0000;fill-opacity:1;fill-rule:evenodd;stroke:none"
             id="path1477" /><path
             d="m 4185.42,4960.01 149.36,29.87 -149.36,29.87 29.87,-29.87 z"
             style="fill:none;stroke:#ff0000;stroke-width:7.46808;stroke-linecap:butt;stroke-linejoin:miter;stroke-miterlimit:10;stroke-dasharray:none;stroke-opacity:1"
             id="path1479" /></g></g><g
         id="g1481"
         transform="scale(0.1)"><g
           id="g1483"
           clip-path="url(#clipPath1487)"><path
             d="m 4802.78,4989.88 h 448.09"
             style="fill:none;stroke:#0000ff;stroke-width:14.9362;stroke-linecap:butt;stroke-linejoin:miter;stroke-miterlimit:10;stroke-dasharray:none;stroke-opacity:1"
             id="path1489" /></g></g><g
         id="g1491"
         transform="scale(0.1)"><g
           id="g1493"
           clip-path="url(#clipPath1497)"><path
             d="m 5081.59,4960.01 149.36,29.87 -149.36,29.87 29.87,-29.87 -29.87,-29.87"
             style="fill:#0000ff;fill-opacity:1;fill-rule:evenodd;stroke:none"
             id="path1499" /><path
             d="m 5081.59,4960.01 149.36,29.87 -149.36,29.87 29.87,-29.87 z"
             style="fill:none;stroke:#0000ff;stroke-width:7.46808;stroke-linecap:butt;stroke-linejoin:miter;stroke-miterlimit:10;stroke-dasharray:none;stroke-opacity:1"
             id="path1501" /></g></g><g
         id="g1503"
         transform="scale(0.1)"><g
           id="g1505"
           clip-path="url(#clipPath1509)"><path
             d="m 1666.19,4989.88 h 448.08"
             style="fill:none;stroke:#0000ff;stroke-width:14.9362;stroke-linecap:butt;stroke-linejoin:miter;stroke-miterlimit:10;stroke-dasharray:none;stroke-opacity:1"
             id="path1511" /></g></g><g
         id="g1513"
         transform="scale(0.1)"><g
           id="g1515"
           clip-path="url(#clipPath1519)"><path
             d="m 1945,4960.01 149.36,29.87 -149.36,29.87 29.87,-29.87 -29.87,-29.87"
             style="fill:#0000ff;fill-opacity:1;fill-rule:evenodd;stroke:none"
             id="path1521" /><path
             d="m 1945,4960.01 149.36,29.87 -149.36,29.87 29.87,-29.87 z"
             style="fill:none;stroke:#0000ff;stroke-width:7.46808;stroke-linecap:butt;stroke-linejoin:miter;stroke-miterlimit:10;stroke-dasharray:none;stroke-opacity:1"
             id="path1523" /><path
             d="m 5286.71,4989.88 c 0,-19.79 -16.05,-35.84 -35.84,-35.84 -19.8,0 -35.85,16.05 -35.85,35.84 0,19.8 16.05,35.85 35.85,35.85 19.79,0 35.84,-16.05 35.84,-35.85"
             style="fill:#000000;fill-opacity:1;fill-rule:evenodd;stroke:none"
             id="path1525" /><path
             d="m 5286.71,4989.88 c 0,-19.79 -16.05,-35.84 -35.84,-35.84 -19.8,0 -35.85,16.05 -35.85,35.84 0,19.8 16.05,35.85 35.85,35.85 19.79,0 35.84,-16.05 35.84,-35.85 z"
             style="fill:none;stroke:#000000;stroke-width:7.46808;stroke-linecap:butt;stroke-linejoin:miter;stroke-miterlimit:10;stroke-dasharray:none;stroke-opacity:1"
             id="path1527" /><path
             d="m 1253.95,4989.88 c 0,-19.79 -16.05,-35.84 -35.85,-35.84 -19.8,0 -35.85,16.05 -35.85,35.84 0,19.8 16.05,35.85 35.85,35.85 19.8,0 35.85,-16.05 35.85,-35.85"
             style="fill:#000000;fill-opacity:1;fill-rule:evenodd;stroke:none"
             id="path1529" /><path
             d="m 1253.95,4989.88 c 0,-19.79 -16.05,-35.84 -35.85,-35.84 -19.8,0 -35.85,16.05 -35.85,35.84 0,19.8 16.05,35.85 35.85,35.85 19.8,0 35.85,-16.05 35.85,-35.85 z"
             style="fill:none;stroke:#000000;stroke-width:7.46808;stroke-linecap:butt;stroke-linejoin:miter;stroke-miterlimit:10;stroke-dasharray:none;stroke-opacity:1"
             id="path1531" /><path
             d="m 1702.04,4989.88 c 0,-19.79 -16.06,-35.84 -35.85,-35.84 -19.8,0 -35.85,16.05 -35.85,35.84 0,19.8 16.05,35.85 35.85,35.85 19.79,0 35.85,-16.05 35.85,-35.85"
             style="fill:#000000;fill-opacity:1;fill-rule:evenodd;stroke:none"
             id="path1533" /><path
             d="m 1702.04,4989.88 c 0,-19.79 -16.06,-35.84 -35.85,-35.84 -19.8,0 -35.85,16.05 -35.85,35.84 0,19.8 16.05,35.85 35.85,35.85 19.79,0 35.85,-16.05 35.85,-35.85 z"
             style="fill:none;stroke:#000000;stroke-width:7.46808;stroke-linecap:butt;stroke-linejoin:miter;stroke-miterlimit:10;stroke-dasharray:none;stroke-opacity:1"
             id="path1535" /><path
             d="m 2150.12,4989.88 c 0,-19.79 -16.05,-35.84 -35.85,-35.84 -19.79,0 -35.84,16.05 -35.84,35.84 0,19.8 16.05,35.85 35.84,35.85 19.8,0 35.85,-16.05 35.85,-35.85"
             style="fill:#000000;fill-opacity:1;fill-rule:evenodd;stroke:none"
             id="path1537" /><path
             d="m 2150.12,4989.88 c 0,-19.79 -16.05,-35.84 -35.85,-35.84 -19.79,0 -35.84,16.05 -35.84,35.84 0,19.8 16.05,35.85 35.84,35.85 19.8,0 35.85,-16.05 35.85,-35.85 z"
             style="fill:none;stroke:#000000;stroke-width:7.46808;stroke-linecap:butt;stroke-linejoin:miter;stroke-miterlimit:10;stroke-dasharray:none;stroke-opacity:1"
             id="path1539" /><path
             d="m 2598.2,4989.88 c 0,-19.79 -16.05,-35.84 -35.84,-35.84 -19.8,0 -35.85,16.05 -35.85,35.84 0,19.8 16.05,35.85 35.85,35.85 19.79,0 35.84,-16.05 35.84,-35.85"
             style="fill:#000000;fill-opacity:1;fill-rule:evenodd;stroke:none"
             id="path1541" /><path
             d="m 2598.2,4989.88 c 0,-19.79 -16.05,-35.84 -35.84,-35.84 -19.8,0 -35.85,16.05 -35.85,35.84 0,19.8 16.05,35.85 35.85,35.85 19.79,0 35.84,-16.05 35.84,-35.85 z"
             style="fill:none;stroke:#000000;stroke-width:7.46808;stroke-linecap:butt;stroke-linejoin:miter;stroke-miterlimit:10;stroke-dasharray:none;stroke-opacity:1"
             id="path1543" /><path
             d="m 3046.29,4989.88 c 0,-19.79 -16.05,-35.84 -35.85,-35.84 -19.8,0 -35.85,16.05 -35.85,35.84 0,19.8 16.05,35.85 35.85,35.85 19.8,0 35.85,-16.05 35.85,-35.85"
             style="fill:#000000;fill-opacity:1;fill-rule:evenodd;stroke:none"
             id="path1545" /><path
             d="m 3046.29,4989.88 c 0,-19.79 -16.05,-35.84 -35.85,-35.84 -19.8,0 -35.85,16.05 -35.85,35.84 0,19.8 16.05,35.85 35.85,35.85 19.8,0 35.85,-16.05 35.85,-35.85 z"
             style="fill:none;stroke:#000000;stroke-width:7.46808;stroke-linecap:butt;stroke-linejoin:miter;stroke-miterlimit:10;stroke-dasharray:none;stroke-opacity:1"
             id="path1547" /><path
             d="m 3494.38,4989.88 c 0,-19.79 -16.06,-35.84 -35.85,-35.84 -19.8,0 -35.85,16.05 -35.85,35.84 0,19.8 16.05,35.85 35.85,35.85 19.79,0 35.85,-16.05 35.85,-35.85"
             style="fill:#000000;fill-opacity:1;fill-rule:evenodd;stroke:none"
             id="path1549" /><path
             d="m 3494.38,4989.88 c 0,-19.79 -16.06,-35.84 -35.85,-35.84 -19.8,0 -35.85,16.05 -35.85,35.84 0,19.8 16.05,35.85 35.85,35.85 19.79,0 35.85,-16.05 35.85,-35.85 z"
             style="fill:none;stroke:#000000;stroke-width:7.46808;stroke-linecap:butt;stroke-linejoin:miter;stroke-miterlimit:10;stroke-dasharray:none;stroke-opacity:1"
             id="path1551" /><path
             d="m 3942.46,4989.88 c 0,-19.79 -16.05,-35.84 -35.85,-35.84 -19.79,0 -35.84,16.05 -35.84,35.84 0,19.8 16.05,35.85 35.84,35.85 19.8,0 35.85,-16.05 35.85,-35.85"
             style="fill:#000000;fill-opacity:1;fill-rule:evenodd;stroke:none"
             id="path1553" /><path
             d="m 3942.46,4989.88 c 0,-19.79 -16.05,-35.84 -35.85,-35.84 -19.79,0 -35.84,16.05 -35.84,35.84 0,19.8 16.05,35.85 35.84,35.85 19.8,0 35.85,-16.05 35.85,-35.85 z"
             style="fill:none;stroke:#000000;stroke-width:7.46808;stroke-linecap:butt;stroke-linejoin:miter;stroke-miterlimit:10;stroke-dasharray:none;stroke-opacity:1"
             id="path1555" /><path
             d="m 4390.54,4989.88 c 0,-19.79 -16.04,-35.84 -35.84,-35.84 -19.8,0 -35.85,16.05 -35.85,35.84 0,19.8 16.05,35.85 35.85,35.85 19.8,0 35.84,-16.05 35.84,-35.85"
             style="fill:#000000;fill-opacity:1;fill-rule:evenodd;stroke:none"
             id="path1557" /><path
             d="m 4390.54,4989.88 c 0,-19.79 -16.04,-35.84 -35.84,-35.84 -19.8,0 -35.85,16.05 -35.85,35.84 0,19.8 16.05,35.85 35.85,35.85 19.8,0 35.84,-16.05 35.84,-35.85 z"
             style="fill:none;stroke:#000000;stroke-width:7.46808;stroke-linecap:butt;stroke-linejoin:miter;stroke-miterlimit:10;stroke-dasharray:none;stroke-opacity:1"
             id="path1559" /><path
             d="m 4838.63,4989.88 c 0,-19.79 -16.05,-35.84 -35.85,-35.84 -19.8,0 -35.84,16.05 -35.84,35.84 0,19.8 16.04,35.85 35.84,35.85 19.8,0 35.85,-16.05 35.85,-35.85"
             style="fill:#000000;fill-opacity:1;fill-rule:evenodd;stroke:none"
             id="path1561" /><path
             d="m 4838.63,4989.88 c 0,-19.79 -16.05,-35.84 -35.85,-35.84 -19.8,0 -35.84,16.05 -35.84,35.84 0,19.8 16.04,35.85 35.84,35.85 19.8,0 35.85,-16.05 35.85,-35.85 z"
             style="fill:none;stroke:#000000;stroke-width:7.46808;stroke-linecap:butt;stroke-linejoin:miter;stroke-miterlimit:10;stroke-dasharray:none;stroke-opacity:1"
             id="path1563" /><path
             d="m 805.863,4989.88 c 0,-19.79 -16.05,-35.84 -35.847,-35.84 -19.797,0 -35.844,16.05 -35.844,35.84 0,19.8 16.047,35.85 35.844,35.85 19.797,0 35.847,-16.05 35.847,-35.85"
             style="fill:#000000;fill-opacity:1;fill-rule:evenodd;stroke:none"
             id="path1565" /><path
             d="m 805.863,4989.88 c 0,-19.79 -16.05,-35.84 -35.847,-35.84 -19.797,0 -35.844,16.05 -35.844,35.84 0,19.8 16.047,35.85 35.844,35.85 19.797,0 35.847,-16.05 35.847,-35.85 z"
             style="fill:none;stroke:#000000;stroke-width:7.46808;stroke-linecap:butt;stroke-linejoin:miter;stroke-miterlimit:10;stroke-dasharray:none;stroke-opacity:1"
             id="path1567" /></g></g><text
         transform="scale(1,-1)"
         style="font-variant:normal;font-weight:normal;font-size:10.9091px;font-family:CMMI10;-inkscape-font-specification:CMMI10;writing-mode:lr-tb;fill:#000000;fill-opacity:1;fill-rule:nonzero;stroke:none"
         id="text1593"
         x="69.625"
         y="-484.052"><tspan
           x="69.625 114.78017 159.24194"
           y="-484.052"
           sodipodi:role="line"
           id="tspan1583">pqr</tspan><tspan
           x="204.89"
           y="-476.58401"
           id="tspan1585">s</tspan><tspan
           x="249.00481 293.74042 338.73151"
           y="-484.052"
           sodipodi:role="line"
           id="tspan1587">tuv</tspan><tspan
           x="383.57581 428.3114"
           y="-476.58401"
           sodipodi:role="line"
           id="tspan1589">wx</tspan><tspan
           x="480.5332 525.57898"
           y="-484.052"
           sodipodi:role="line"
           id="tspan1591">yz</tspan></text></g></g></svg>
